<svg width="135" height="45" viewBox="0 0 135 45" fill="none" xmlns="http://www.w3.org/2000/svg">
<path d="M11.468 33H8.156V4.526L2.268 9.54L0.244 7.24L8.524 0.432H11.468V33ZM43.5336 3.376H29.9636L29.7336 13.45C30.4389 13.2047 31.1749 13.0207 31.9416 12.898C32.7389 12.7753 33.5056 12.714 34.2416 12.714C35.7749 12.714 37.1856 12.9593 38.4736 13.45C39.7616 13.9407 40.8809 14.646 41.8316 15.566C42.7823 16.4553 43.5183 17.5287 44.0396 18.786C44.5609 20.0433 44.8216 21.4233 44.8216 22.926C44.8216 24.49 44.5609 25.9467 44.0396 27.296C43.5183 28.6147 42.7823 29.7647 41.8316 30.746C40.8809 31.6967 39.7309 32.448 38.3816 33C37.0629 33.552 35.6063 33.828 34.0116 33.828C31.6503 33.828 29.6569 33.2913 28.0316 32.218C26.4063 31.1447 25.1489 29.7033 24.2596 27.894L27.2496 26.56C27.8323 27.9093 28.7063 28.9827 29.8716 29.78C31.0676 30.5773 32.3863 30.976 33.8276 30.976C34.9316 30.976 35.9436 30.792 36.8636 30.424C37.8143 30.0253 38.6269 29.4887 39.3016 28.814C39.9763 28.1087 40.4976 27.2807 40.8656 26.33C41.2643 25.3793 41.4636 24.352 41.4636 23.248C41.4636 22.052 41.2489 20.9787 40.8196 20.028C40.4209 19.0467 39.8536 18.2187 39.1176 17.544C38.4123 16.8693 37.5689 16.348 36.5876 15.98C35.6063 15.612 34.5329 15.428 33.3676 15.428C32.2023 15.428 31.0369 15.5967 29.8716 15.934C28.7369 16.2407 27.6483 16.67 26.6056 17.222L26.9276 0.432H43.5336V3.376ZM59.9132 29.642H60.0052L66.6752 11.472H70.0792L59.3612 38.566C58.7172 40.222 57.8892 41.5407 56.8772 42.522C55.8959 43.534 54.4699 44.04 52.5992 44.04C51.6485 44.04 50.7132 43.948 49.7932 43.764L50.1152 40.912C50.8512 41.1573 51.6179 41.28 52.4152 41.28C53.4885 41.28 54.3319 40.9427 54.9452 40.268C55.5585 39.624 56.0952 38.6887 56.5552 37.462L58.3032 32.954L49.1032 11.472H52.5992L59.9132 29.642ZM74.9681 16.21C74.9681 15.6273 74.9528 14.876 74.9221 13.956C74.8915 13.036 74.8455 12.208 74.7841 11.472H77.7741C77.8355 12.0547 77.8815 12.6987 77.9121 13.404C77.9428 14.1093 77.9581 14.692 77.9581 15.152H78.0501C78.6635 13.8947 79.5835 12.8827 80.8101 12.116C82.0368 11.3187 83.4168 10.92 84.9501 10.92C85.3488 10.92 85.7015 10.9353 86.0081 10.966C86.3455 10.9967 86.6828 11.058 87.0201 11.15L86.6061 14.094C86.4221 14.0327 86.1155 13.9713 85.6861 13.91C85.2568 13.8487 84.8275 13.818 84.3981 13.818C83.5701 13.818 82.7728 13.9713 82.0061 14.278C81.2395 14.5847 80.5648 15.0753 79.9821 15.75C79.4301 16.394 78.9701 17.2373 78.6021 18.28C78.2648 19.292 78.0961 20.5187 78.0961 21.96V33H74.9681V16.21ZM102.998 16.578C102.538 15.6887 101.833 14.968 100.882 14.416C99.9623 13.8333 98.9043 13.542 97.7083 13.542C97.1563 13.542 96.6043 13.6033 96.0523 13.726C95.5003 13.8487 95.0096 14.048 94.5803 14.324C94.151 14.6 93.7983 14.9527 93.5223 15.382C93.277 15.8113 93.1543 16.3173 93.1543 16.9C93.1543 17.912 93.5683 18.694 94.3963 19.246C95.2243 19.7673 96.5276 20.212 98.3063 20.58C100.852 21.1013 102.722 21.868 103.918 22.88C105.145 23.8613 105.758 25.1953 105.758 26.882C105.758 28.1087 105.513 29.1513 105.022 30.01C104.562 30.838 103.949 31.528 103.182 32.08C102.416 32.6013 101.542 32.9693 100.56 33.184C99.6096 33.4293 98.6436 33.552 97.6623 33.552C96.037 33.552 94.4576 33.2147 92.9243 32.54C91.391 31.8653 90.1336 30.8073 89.1523 29.366L91.6363 27.526C92.1883 28.4767 93.001 29.274 94.0743 29.918C95.1476 30.562 96.3283 30.884 97.6163 30.884C98.291 30.884 98.935 30.8227 99.5483 30.7C100.162 30.5773 100.698 30.3627 101.158 30.056C101.618 29.7493 101.986 29.366 102.262 28.906C102.538 28.4153 102.676 27.8173 102.676 27.112C102.676 25.9773 102.124 25.134 101.02 24.582C99.947 23.9993 98.383 23.4627 96.3283 22.972C95.6843 22.8187 94.9943 22.6347 94.2583 22.42C93.553 22.1747 92.8936 21.8373 92.2803 21.408C91.667 20.948 91.161 20.3807 90.7623 19.706C90.3636 19.0313 90.1643 18.188 90.1643 17.176C90.1643 16.072 90.379 15.1367 90.8083 14.37C91.2376 13.5727 91.805 12.9287 92.5103 12.438C93.2463 11.9167 94.0743 11.5333 94.9943 11.288C95.9143 11.0427 96.865 10.92 97.8463 10.92C99.349 10.92 100.806 11.2573 102.216 11.932C103.627 12.6067 104.685 13.5573 105.39 14.784L102.998 16.578Z" fill="#13253A"/>
<path d="M124.542 17.682H134.892V20.442H124.542V30.792H121.782V20.442H111.432V17.682H121.782V7.332H124.542V17.682Z" fill="#FF7F57"/>
</svg>
