<svg width="113" height="36" viewBox="0 0 113 36" fill="none" xmlns="http://www.w3.org/2000/svg">
<path d="M19.908 5.468L6.798 35H3.072L16.55 5.376H0.588V2.432H19.908V5.468ZM32.1476 32.792C32.1476 33.436 31.9176 34.0187 31.4576 34.54C30.9976 35.0307 30.3996 35.276 29.6636 35.276C28.9276 35.276 28.3296 35.0307 27.8696 34.54C27.4096 34.0187 27.1796 33.436 27.1796 32.792C27.1796 32.148 27.4096 31.5807 27.8696 31.09C28.3296 30.5687 28.9276 30.308 29.6636 30.308C30.3996 30.308 30.9976 30.5687 31.4576 31.09C31.9176 31.5807 32.1476 32.148 32.1476 32.792ZM57.4828 5.376H43.9128L43.6828 15.45C44.3881 15.2047 45.1241 15.0207 45.8908 14.898C46.6881 14.7753 47.4548 14.714 48.1908 14.714C49.7241 14.714 51.1348 14.9593 52.4228 15.45C53.7108 15.9407 54.8301 16.646 55.7808 17.566C56.7315 18.4553 57.4675 19.5287 57.9888 20.786C58.5101 22.0433 58.7708 23.4233 58.7708 24.926C58.7708 26.49 58.5101 27.9467 57.9888 29.296C57.4675 30.6147 56.7315 31.7647 55.7808 32.746C54.8301 33.6967 53.6801 34.448 52.3308 35C51.0121 35.552 49.5555 35.828 47.9608 35.828C45.5995 35.828 43.6061 35.2913 41.9808 34.218C40.3555 33.1447 39.0981 31.7033 38.2088 29.894L41.1988 28.56C41.7815 29.9093 42.6555 30.9827 43.8208 31.78C45.0168 32.5773 46.3355 32.976 47.7768 32.976C48.8808 32.976 49.8928 32.792 50.8128 32.424C51.7635 32.0253 52.5761 31.4887 53.2508 30.814C53.9255 30.1087 54.4468 29.2807 54.8148 28.33C55.2135 27.3793 55.4128 26.352 55.4128 25.248C55.4128 24.052 55.1981 22.9787 54.7688 22.028C54.3701 21.0467 53.8028 20.2187 53.0668 19.544C52.3615 18.8693 51.5181 18.348 50.5368 17.98C49.5555 17.612 48.4821 17.428 47.3168 17.428C46.1515 17.428 44.9861 17.5967 43.8208 17.934C42.6861 18.2407 41.5975 18.67 40.5548 19.222L40.8768 2.432H57.4828V5.376ZM69.6764 23.178H69.8144L79.7504 13.472H84.2584L73.4024 23.316L85.3624 35H80.7624L69.8144 23.684H69.6764V35H66.5484V0.223998H69.6764V23.178Z" fill="#13253A"/>
<path d="M102.464 19.682H112.814V22.442H102.464V32.792H99.7036V22.442H89.3536V19.682H99.7036V9.332H102.464V19.682Z" fill="#FF7F57"/>
</svg>
