<svg width="120" height="44" viewBox="0 0 120 44" fill="none" xmlns="http://www.w3.org/2000/svg">
<g filter="url(#filter0_d)">
<path d="M9.246 16.646L9.338 16.738C9.82867 16.37 10.5187 16.0787 11.408 15.864C12.2973 15.6493 13.156 15.542 13.984 15.542C15.3947 15.542 16.698 15.7873 17.894 16.278C19.1207 16.7687 20.1787 17.4587 21.068 18.348C21.9573 19.2067 22.6473 20.2647 23.138 21.522C23.6593 22.7487 23.92 24.098 23.92 25.57C23.92 27.1033 23.6593 28.4987 23.138 29.756C22.6167 31.0133 21.8807 32.0867 20.93 32.976C19.9793 33.8653 18.86 34.5553 17.572 35.046C16.284 35.5673 14.8733 35.828 13.34 35.828C11.8067 35.828 10.396 35.5673 9.108 35.046C7.82 34.5553 6.70067 33.8653 5.75 32.976C4.79933 32.0867 4.06333 31.0133 3.542 29.756C3.02067 28.4987 2.76 27.1033 2.76 25.57C2.76 23.8833 3.05133 22.3193 3.634 20.878C4.21667 19.4367 4.90667 18.0567 5.704 16.738L14.582 2.432H18.4L9.246 16.646ZM6.072 25.57C6.072 26.6433 6.24067 27.64 6.578 28.56C6.946 29.4493 7.452 30.2313 8.096 30.906C8.74 31.55 9.50667 32.0713 10.396 32.47C11.2853 32.838 12.2667 33.022 13.34 33.022C14.4133 33.022 15.3947 32.838 16.284 32.47C17.1733 32.0713 17.94 31.55 18.584 30.906C19.228 30.2313 19.7187 29.4493 20.056 28.56C20.424 27.64 20.608 26.6433 20.608 25.57C20.608 24.5273 20.4393 23.5613 20.102 22.672C19.7647 21.752 19.274 20.97 18.63 20.326C18.0167 19.6513 17.25 19.13 16.33 18.762C15.4407 18.394 14.444 18.21 13.34 18.21C12.236 18.21 11.224 18.394 10.304 18.762C9.41467 19.13 8.648 19.6513 8.004 20.326C7.39067 20.97 6.91533 21.752 6.578 22.672C6.24067 23.5613 6.072 24.5273 6.072 25.57ZM35.1476 32.792C35.1476 33.436 34.9176 34.0187 34.4576 34.54C33.9976 35.0307 33.3996 35.276 32.6636 35.276C31.9276 35.276 31.3296 35.0307 30.8696 34.54C30.4096 34.0187 30.1796 33.436 30.1796 32.792C30.1796 32.148 30.4096 31.5807 30.8696 31.09C31.3296 30.5687 31.9276 30.308 32.6636 30.308C33.3996 30.308 33.9976 30.5687 34.4576 31.09C34.9176 31.5807 35.1476 32.148 35.1476 32.792ZM61.8168 35H40.9788V31.55L54.3188 18.072C54.8095 17.5813 55.2848 17.06 55.7448 16.508C56.2355 15.9253 56.6648 15.3273 57.0328 14.714C57.4008 14.1007 57.6921 13.4567 57.9068 12.782C58.1215 12.0767 58.2288 11.356 58.2288 10.62C58.2288 9.66933 58.0601 8.81066 57.7228 8.044C57.3855 7.27733 56.9101 6.63333 56.2968 6.112C55.7141 5.56 55.0241 5.146 54.2268 4.87C53.4601 4.56333 52.6475 4.41 51.7888 4.41C50.0408 4.41 48.5688 4.962 47.3728 6.066C46.1768 7.13933 45.4101 8.51933 45.0728 10.206L41.8068 9.562C42.0215 8.42733 42.4201 7.36933 43.0028 6.388C43.6161 5.40666 44.3521 4.56333 45.2108 3.858C46.1001 3.15266 47.0968 2.60066 48.2008 2.202C49.3048 1.80333 50.5008 1.604 51.7888 1.604C53.1075 1.604 54.3495 1.80333 55.5148 2.202C56.7108 2.57 57.7535 3.13733 58.6428 3.904C59.5321 4.64 60.2375 5.57533 60.7588 6.71C61.3108 7.814 61.5868 9.102 61.5868 10.574C61.5868 11.6167 61.4335 12.5827 61.1268 13.472C60.8508 14.3613 60.4675 15.2047 59.9768 16.002C59.5168 16.7993 58.9648 17.566 58.3208 18.302C57.6768 19.0073 57.0021 19.7127 56.2968 20.418L44.5668 32.056H61.8168V35ZM72.6764 23.178H72.8144L82.7504 13.472H87.2584L76.4024 23.316L88.3624 35H83.7624L72.8144 23.684H72.6764V35H69.5484V0.223998H72.6764V23.178Z" fill="#13253A"/>
<path d="M105.464 19.682H115.814V22.442H105.464V32.792H102.704V22.442H92.3536V19.682H102.704V9.332H105.464V19.682Z" fill="#FF7F57"/>
</g>
<defs>
<filter id="filter0_d" x="-1.23999" y="0.223999" width="121.054" height="43.604" filterUnits="userSpaceOnUse" color-interpolation-filters="sRGB">
<feFlood flood-opacity="0" result="BackgroundImageFix"/>
<feColorMatrix in="SourceAlpha" type="matrix" values="0 0 0 0 0 0 0 0 0 0 0 0 0 0 0 0 0 0 127 0"/>
<feOffset dy="4"/>
<feGaussianBlur stdDeviation="2"/>
<feColorMatrix type="matrix" values="0 0 0 0 0 0 0 0 0 0 0 0 0 0 0 0 0 0 0.25 0"/>
<feBlend mode="normal" in2="BackgroundImageFix" result="effect1_dropShadow"/>
<feBlend mode="normal" in="SourceGraphic" in2="effect1_dropShadow" result="shape"/>
</filter>
</defs>
</svg>
